<?xml version="1.0" encoding="UTF-8" standalone="no"?>
<!DOCTYPE svg PUBLIC "-//W3C//DTD SVG 1.1//EN"
 "http://www.w3.org/Graphics/SVG/1.1/DTD/svg11.dtd">
<!-- Generated by graphviz version 2.43.0 (0)
 -->
<!-- Title: Data Structures Pages: 1 -->
<svg width="573pt" height="397pt"
 viewBox="0.00 0.00 572.50 397.00" xmlns="http://www.w3.org/2000/svg" xmlns:xlink="http://www.w3.org/1999/xlink">
<g id="graph0" class="graph" transform="scale(1 1) rotate(0) translate(4 393)">
<title>Data Structures</title>
<polygon fill="white" stroke="transparent" points="-4,4 -4,-393 568.5,-393 568.5,4 -4,4"/>
<!-- puzzle_c -->
<g id="node1" class="node">
<title>puzzle_c</title>
<polygon fill="none" stroke="black" points="109,-352.5 109,-388.5 186,-388.5 186,-352.5 109,-352.5"/>
<text text-anchor="middle" x="147.5" y="-366.8" font-family="Times,serif" font-size="14.00">puzzle_c</text>
</g>
<!-- gridType_c -->
<g id="node2" class="node">
<title>gridType_c</title>
<polygon fill="none" stroke="black" points="0,-264.5 0,-300.5 95,-300.5 95,-264.5 0,-264.5"/>
<text text-anchor="middle" x="47.5" y="-278.8" font-family="Times,serif" font-size="14.00">gridType_c</text>
</g>
<!-- puzzle_c&#45;&gt;gridType_c -->
<g id="edge1" class="edge">
<title>puzzle_c&#45;&gt;gridType_c</title>
<path fill="none" stroke="black" d="M127.26,-352.1C112.26,-339.19 91.62,-321.45 75.1,-307.24"/>
<polygon fill="black" stroke="black" points="77.23,-304.45 67.37,-300.58 72.66,-309.76 77.23,-304.45"/>
<text text-anchor="middle" x="111.5" y="-322.8" font-family="Times,serif" font-size="14.00">gt</text>
</g>
<!-- voxel_c -->
<g id="node3" class="node">
<title>voxel_c</title>
<polygon fill="none" stroke="black" points="113.5,-264.5 113.5,-300.5 181.5,-300.5 181.5,-264.5 113.5,-264.5"/>
<text text-anchor="middle" x="147.5" y="-278.8" font-family="Times,serif" font-size="14.00">voxel_c</text>
</g>
<!-- puzzle_c&#45;&gt;voxel_c -->
<g id="edge2" class="edge">
<title>puzzle_c&#45;&gt;voxel_c</title>
<path fill="none" stroke="black" d="M147.5,-352.1C147.5,-340.25 147.5,-324.32 147.5,-310.79"/>
<polygon fill="black" stroke="black" points="151,-310.58 147.5,-300.58 144,-310.58 151,-310.58"/>
<text text-anchor="middle" x="172.5" y="-322.8" font-family="Times,serif" font-size="14.00">shapes</text>
</g>
<!-- problem_c -->
<g id="node4" class="node">
<title>problem_c</title>
<polygon fill="none" stroke="black" points="199.5,-264.5 199.5,-300.5 289.5,-300.5 289.5,-264.5 199.5,-264.5"/>
<text text-anchor="middle" x="244.5" y="-278.8" font-family="Times,serif" font-size="14.00">problem_c</text>
</g>
<!-- puzzle_c&#45;&gt;problem_c -->
<g id="edge3" class="edge">
<title>puzzle_c&#45;&gt;problem_c</title>
<path fill="none" stroke="black" d="M176.9,-352.33C185.21,-346.92 194.02,-340.61 201.5,-334 210,-326.49 218.33,-317.28 225.36,-308.79"/>
<polygon fill="black" stroke="black" points="228.12,-310.94 231.66,-300.96 222.66,-306.56 228.12,-310.94"/>
<text text-anchor="middle" x="250" y="-322.8" font-family="Times,serif" font-size="14.00">problems</text>
</g>
<!-- part_c -->
<g id="node5" class="node">
<title>part_c</title>
<polygon fill="none" stroke="black" points="113,-176.5 113,-212.5 174,-212.5 174,-176.5 113,-176.5"/>
<text text-anchor="middle" x="143.5" y="-190.8" font-family="Times,serif" font-size="14.00">part_c</text>
</g>
<!-- problem_c&#45;&gt;part_c -->
<g id="edge4" class="edge">
<title>problem_c&#45;&gt;part_c</title>
<path fill="none" stroke="black" d="M223.97,-264.19C217.13,-258.42 209.48,-251.94 202.5,-246 192.21,-237.25 180.93,-227.61 171.02,-219.12"/>
<polygon fill="black" stroke="black" points="173.28,-216.44 163.41,-212.59 168.73,-221.76 173.28,-216.44"/>
<text text-anchor="middle" x="221.5" y="-234.8" font-family="Times,serif" font-size="14.00">parts</text>
</g>
<!-- assembler_c -->
<g id="node6" class="node">
<title>assembler_c</title>
<polygon fill="none" stroke="black" points="192.5,-176.5 192.5,-212.5 296.5,-212.5 296.5,-176.5 192.5,-176.5"/>
<text text-anchor="middle" x="244.5" y="-190.8" font-family="Times,serif" font-size="14.00">assembler_c</text>
</g>
<!-- problem_c&#45;&gt;assembler_c -->
<g id="edge5" class="edge">
<title>problem_c&#45;&gt;assembler_c</title>
<path fill="none" stroke="black" d="M244.5,-264.1C244.5,-252.25 244.5,-236.32 244.5,-222.79"/>
<polygon fill="black" stroke="black" points="248,-222.58 244.5,-212.58 241,-222.58 248,-222.58"/>
<text text-anchor="middle" x="263" y="-234.8" font-family="Times,serif" font-size="14.00">assm</text>
</g>
<!-- solution_c -->
<g id="node7" class="node">
<title>solution_c</title>
<polygon fill="none" stroke="black" points="314.5,-176.5 314.5,-212.5 402.5,-212.5 402.5,-176.5 314.5,-176.5"/>
<text text-anchor="middle" x="358.5" y="-190.8" font-family="Times,serif" font-size="14.00">solution_c</text>
</g>
<!-- problem_c&#45;&gt;solution_c -->
<g id="edge6" class="edge">
<title>problem_c&#45;&gt;solution_c</title>
<path fill="none" stroke="black" d="M267.3,-264.3C284.62,-251.24 308.62,-233.13 327.66,-218.77"/>
<polygon fill="black" stroke="black" points="329.87,-221.48 335.74,-212.67 325.65,-215.9 329.87,-221.48"/>
<text text-anchor="middle" x="341" y="-234.8" font-family="Times,serif" font-size="14.00">solutions</text>
</g>
<!-- assembly_c -->
<g id="node8" class="node">
<title>assembly_c</title>
<polygon fill="none" stroke="black" points="188.5,-88.5 188.5,-124.5 286.5,-124.5 286.5,-88.5 188.5,-88.5"/>
<text text-anchor="middle" x="237.5" y="-102.8" font-family="Times,serif" font-size="14.00">assembly_c</text>
</g>
<!-- solution_c&#45;&gt;assembly_c -->
<g id="edge7" class="edge">
<title>solution_c&#45;&gt;assembly_c</title>
<path fill="none" stroke="black" d="M318.48,-176.34C308,-171.1 296.99,-164.87 287.5,-158 277.3,-150.61 267.28,-141.08 258.93,-132.3"/>
<polygon fill="black" stroke="black" points="261.4,-129.82 252.05,-124.84 256.26,-134.56 261.4,-129.82"/>
<text text-anchor="middle" x="321" y="-146.8" font-family="Times,serif" font-size="14.00">assembly</text>
</g>
<!-- separation_c -->
<g id="node9" class="node">
<title>separation_c</title>
<polygon fill="none" stroke="black" points="305,-88.5 305,-124.5 412,-124.5 412,-88.5 305,-88.5"/>
<text text-anchor="middle" x="358.5" y="-102.8" font-family="Times,serif" font-size="14.00">separation_c</text>
</g>
<!-- solution_c&#45;&gt;separation_c -->
<g id="edge8" class="edge">
<title>solution_c&#45;&gt;separation_c</title>
<path fill="none" stroke="black" d="M358.5,-176.1C358.5,-164.25 358.5,-148.32 358.5,-134.79"/>
<polygon fill="black" stroke="black" points="362,-134.58 358.5,-124.58 355,-134.58 362,-134.58"/>
<text text-anchor="middle" x="373.5" y="-146.8" font-family="Times,serif" font-size="14.00">tree</text>
</g>
<!-- separationInfo_c -->
<g id="node10" class="node">
<title>separationInfo_c</title>
<polygon fill="none" stroke="black" points="430.5,-88.5 430.5,-124.5 564.5,-124.5 564.5,-88.5 430.5,-88.5"/>
<text text-anchor="middle" x="497.5" y="-102.8" font-family="Times,serif" font-size="14.00">separationInfo_c</text>
</g>
<!-- solution_c&#45;&gt;separationInfo_c -->
<g id="edge9" class="edge">
<title>solution_c&#45;&gt;separationInfo_c</title>
<path fill="none" stroke="black" d="M386.29,-176.3C407.79,-163 437.74,-144.48 461.14,-130"/>
<polygon fill="black" stroke="black" points="463.09,-132.9 469.75,-124.67 459.41,-126.95 463.09,-132.9"/>
<text text-anchor="middle" x="465.5" y="-146.8" font-family="Times,serif" font-size="14.00">treeInfo</text>
</g>
<!-- placement_c -->
<g id="node11" class="node">
<title>placement_c</title>
<polygon fill="none" stroke="black" points="185,-0.5 185,-36.5 290,-36.5 290,-0.5 185,-0.5"/>
<text text-anchor="middle" x="237.5" y="-14.8" font-family="Times,serif" font-size="14.00">placement_c</text>
</g>
<!-- assembly_c&#45;&gt;placement_c -->
<g id="edge10" class="edge">
<title>assembly_c&#45;&gt;placement_c</title>
<path fill="none" stroke="black" d="M237.5,-88.1C237.5,-76.25 237.5,-60.32 237.5,-46.79"/>
<polygon fill="black" stroke="black" points="241,-46.58 237.5,-36.58 234,-46.58 241,-46.58"/>
<text text-anchor="middle" x="278.5" y="-58.8" font-family="Times,serif" font-size="14.00">placements</text>
</g>
</g>
</svg>
